<svg xmlns="http://www.w3.org/2000/svg" width="18" height="18" fill="none" viewBox="0 0 24 24" 
style="height: 18px; width: 18px; display: block; flex: 0 0 auto;">
<path fill="currentColor" d="M16 11h-3.5V4.5C12.5 3.122 11.378 2 10 2a2.503 2.503 0 0 0-2.5 2.5V11H4a1 1 0 0 0-1 1v3a.99.99 0 0 0 .894.979 19.21 19.21 0 0 1-.365 1.779 11.553 11.553 0 0 1-1.363 3.188A1 1 0 0 0 3 22.5h3.5a1 1 0 0 0 .95-.684l.05-.154.051.154a1 1 0 0 0 .95.684H13c.333 0 .645-.167.831-.445.045-.067 1.103-1.669 1.638-3.812.242-.968.372-1.708.443-2.242H16a1 1 0 0 0 1-1v-3A1 1 0 0 0 16 11ZM9.5 4.5a.5.5 0 0 1 1 0V11h-1V4.5ZM5 13h10v1H5v-1Zm8.53 4.758a11.665 11.665 0 0 1-1.099 2.742h-3.21l-.773-2.316a.998.998 0 0 0-1.897 0L5.78 20.5H4.671c.284-.622.584-1.396.8-2.258.241-.968.37-1.708.442-2.242h7.98a19.875 19.875 0 0 1-.363 1.758ZM17.5 22a1.5 1.5 0 1 0 0-3 1.5 1.5 0 0 0 0 3ZM20 18.5a1 1 0 1 0 0-2 1 1 0 0 0 0 2Z">
</path>
</svg>