<?xml version="1.0" encoding="UTF-8"?>
<svg xmlns="http://www.w3.org/2000/svg" xmlns:xlink="http://www.w3.org/1999/xlink" width="px" height="24px" viewBox="0 0 24 24" version="1.1">
<defs>
<linearGradient id="linear0" gradientUnits="userSpaceOnUse" x1="63.299999" y1="84" x2="241.699997" y2="84" gradientTransform="matrix(0.09375,0,0,-0.09375,-0.43125,24.46875)">
<stop offset="0" style="stop-color:rgb(4.705882%,34.901961%,64.313725%);stop-opacity:1;"/>
<stop offset="1" style="stop-color:rgb(6.666667%,29.019608%,54.509804%);stop-opacity:1;"/>
</linearGradient>
<filter id="alpha" filterUnits="objectBoundingBox" x="0%" y="0%" width="100%" height="100%">
  <feColorMatrix type="matrix" in="SourceGraphic" values="0 0 0 0 1 0 0 0 0 1 0 0 0 0 1 0 0 0 1 0"/>
</filter>
<mask id="mask0">
  <g filter="url(#alpha)">
<rect x="0" y="0" width="24" height="24" style="fill:rgb(0%,0%,0%);fill-opacity:0.34902;stroke:none;"/>
  </g>
</mask>
<radialGradient id="radial0" gradientUnits="userSpaceOnUse" cx="161.800003" cy="68.900002" fx="161.800003" fy="68.900002" r="95.400002" gradientTransform="matrix(0.09375,0,0,-0.0890625,-0.43125,22.85625)">
<stop offset="0.7" style="stop-color:rgb(0%,0%,0%);stop-opacity:0;"/>
<stop offset="0.9" style="stop-color:rgb(0%,0%,0%);stop-opacity:0.501961;"/>
<stop offset="1" style="stop-color:rgb(0%,0%,0%);stop-opacity:1;"/>
</radialGradient>
<clipPath id="clip1">
  <rect x="0" y="0" width="24" height="24"/>
</clipPath>
<g id="surface5" clip-path="url(#clip1)">
<path style=" stroke:none;fill-rule:nonzero;fill:url(#radial0);" d="M 21.664062 17.859375 C 21.34375 18.027344 21.011719 18.171875 20.671875 18.300781 C 19.59375 18.699219 18.453125 18.902344 17.304688 18.898438 C 12.871094 18.898438 9.007812 15.851562 9.007812 11.933594 C 9.019531 10.867188 9.609375 9.886719 10.546875 9.375 C 6.535156 9.542969 5.503906 13.726562 5.503906 16.171875 C 5.503906 23.109375 11.886719 23.804688 13.265625 23.804688 C 14.007812 23.804688 15.121094 23.585938 15.796875 23.371094 L 15.917969 23.335938 C 18.5 22.441406 20.703125 20.695312 22.164062 18.382812 C 22.25 18.238281 22.230469 18.054688 22.113281 17.933594 C 21.996094 17.808594 21.816406 17.78125 21.664062 17.859375 Z M 21.664062 17.859375 "/>
</g>
<linearGradient id="linear1" gradientUnits="userSpaceOnUse" x1="157.300003" y1="161.399994" x2="46" y2="40.099998" gradientTransform="matrix(0.09375,0,0,-0.09375,-0.43125,24.46875)">
<stop offset="0" style="stop-color:rgb(10.588235%,61.568627%,88.627451%);stop-opacity:1;"/>
<stop offset="0.2" style="stop-color:rgb(8.235294%,58.431373%,87.45098%);stop-opacity:1;"/>
<stop offset="0.7" style="stop-color:rgb(2.352941%,50.196078%,84.313725%);stop-opacity:1;"/>
<stop offset="1" style="stop-color:rgb(0%,47.058824%,83.137255%);stop-opacity:1;"/>
</linearGradient>
<mask id="mask1">
  <g filter="url(#alpha)">
<rect x="0" y="0" width="24" height="24" style="fill:rgb(0%,0%,0%);fill-opacity:0.411765;stroke:none;"/>
  </g>
</mask>
<radialGradient id="radial1" gradientUnits="userSpaceOnUse" cx="-340.299988" cy="63" fx="-340.299988" fy="63" r="143.199997" gradientTransform="matrix(0.0140625,-0.0928125,-0.075,-0.01125,16.125001,-12.225)">
<stop offset="0.8" style="stop-color:rgb(0%,0%,0%);stop-opacity:0;"/>
<stop offset="0.9" style="stop-color:rgb(0%,0%,0%);stop-opacity:0.501961;"/>
<stop offset="1" style="stop-color:rgb(0%,0%,0%);stop-opacity:1;"/>
</radialGradient>
<clipPath id="clip2">
  <rect x="0" y="0" width="24" height="24"/>
</clipPath>
<g id="surface8" clip-path="url(#clip2)">
<path style=" stroke:none;fill-rule:nonzero;fill:url(#radial1);" d="M 9.910156 22.621094 C 9.074219 22.105469 8.351562 21.425781 7.78125 20.625 C 6.464844 18.820312 6.011719 16.527344 6.542969 14.355469 C 7.078125 12.1875 8.542969 10.363281 10.546875 9.375 C 10.847656 9.234375 11.34375 8.992188 12.007812 9 C 12.957031 9.007812 13.851562 9.457031 14.417969 10.21875 C 14.796875 10.726562 15.003906 11.339844 15.007812 11.972656 C 15.007812 11.953125 17.304688 4.507812 7.507812 4.507812 C 3.394531 4.507812 0.0078125 8.410156 0.0078125 11.839844 C -0.0078125 13.652344 0.378906 15.445312 1.144531 17.089844 C 3.730469 22.601562 10.03125 25.300781 15.804688 23.371094 C 13.828125 23.996094 11.675781 23.722656 9.917969 22.621094 Z M 9.910156 22.621094 "/>
</g>
<radialGradient id="radial2" gradientUnits="userSpaceOnUse" cx="113.400002" cy="570.200012" fx="113.400002" fy="570.200012" r="202.399994" gradientTransform="matrix(-0.00375,0.09375,0.199688,0.0075,-111.009375,-10.471875)">
<stop offset="0" style="stop-color:rgb(20.784314%,75.686275%,94.509804%);stop-opacity:1;"/>
<stop offset="0.1" style="stop-color:rgb(20.392157%,75.686275%,92.941176%);stop-opacity:1;"/>
<stop offset="0.2" style="stop-color:rgb(18.431373%,76.078431%,87.45098%);stop-opacity:1;"/>
<stop offset="0.3" style="stop-color:rgb(16.862745%,76.470588%,82.352941%);stop-opacity:1;"/>
<stop offset="0.7" style="stop-color:rgb(21.176471%,78.039216%,32.156863%);stop-opacity:1;"/>
</radialGradient>
<radialGradient id="radial3" gradientUnits="userSpaceOnUse" cx="376.5" cy="568" fx="376.5" fy="568" r="97.300003" gradientTransform="matrix(0.02625,0.09,0.073125,-0.0215625,-28.912499,-14.390625)">
<stop offset="0" style="stop-color:rgb(40%,92.156863%,43.137255%);stop-opacity:1;"/>
<stop offset="1" style="stop-color:rgb(40%,92.156863%,43.137255%);stop-opacity:0;"/>
</radialGradient>
</defs>
<g id="surface1">
<path style=" stroke:none;fill-rule:nonzero;fill:url(#linear0);" d="M 21.664062 17.859375 C 21.34375 18.027344 21.011719 18.171875 20.671875 18.300781 C 19.59375 18.699219 18.453125 18.902344 17.304688 18.898438 C 12.871094 18.898438 9.007812 15.851562 9.007812 11.933594 C 9.019531 10.867188 9.609375 9.886719 10.546875 9.375 C 6.535156 9.542969 5.503906 13.726562 5.503906 16.171875 C 5.503906 23.109375 11.886719 23.804688 13.265625 23.804688 C 14.007812 23.804688 15.121094 23.585938 15.796875 23.371094 L 15.917969 23.335938 C 18.5 22.441406 20.703125 20.695312 22.164062 18.382812 C 22.25 18.238281 22.230469 18.054688 22.113281 17.933594 C 21.996094 17.808594 21.816406 17.78125 21.664062 17.859375 Z M 21.664062 17.859375 "/>
<use xlink:href="#surface5" mask="url(#mask0)"/>
<path style=" stroke:none;fill-rule:nonzero;fill:url(#linear1);" d="M 9.910156 22.621094 C 9.074219 22.105469 8.351562 21.425781 7.78125 20.625 C 6.464844 18.820312 6.011719 16.527344 6.542969 14.355469 C 7.078125 12.1875 8.542969 10.363281 10.546875 9.375 C 10.847656 9.234375 11.34375 8.992188 12.007812 9 C 12.957031 9.007812 13.851562 9.457031 14.417969 10.21875 C 14.796875 10.726562 15.003906 11.339844 15.007812 11.972656 C 15.007812 11.953125 17.304688 4.507812 7.507812 4.507812 C 3.394531 4.507812 0.0078125 8.410156 0.0078125 11.839844 C -0.0078125 13.652344 0.378906 15.445312 1.144531 17.089844 C 3.730469 22.601562 10.03125 25.300781 15.804688 23.371094 C 13.828125 23.996094 11.675781 23.722656 9.917969 22.621094 Z M 9.910156 22.621094 "/>
<use xlink:href="#surface8" mask="url(#mask1)"/>
<path style=" stroke:none;fill-rule:nonzero;fill:url(#radial2);" d="M 14.289062 13.949219 C 14.203125 14.042969 13.96875 14.183594 13.96875 14.476562 C 13.96875 14.71875 14.128906 14.960938 14.417969 15.160156 C 15.757812 16.097656 18.300781 15.964844 18.308594 15.964844 C 19.308594 15.964844 20.289062 15.695312 21.148438 15.1875 C 22.914062 14.15625 23.996094 12.269531 24 10.226562 C 24.027344 8.128906 23.25 6.730469 22.941406 6.113281 C 20.945312 2.230469 16.660156 0 12 0 C 5.4375 0 0.09375 5.269531 0 11.832031 C 0.046875 8.410156 3.449219 5.644531 7.5 5.644531 C 7.828125 5.644531 9.703125 5.671875 11.4375 6.582031 C 12.65625 7.1875 13.664062 8.144531 14.335938 9.328125 C 14.90625 10.320312 15.007812 11.585938 15.007812 12.09375 C 15.007812 12.601562 14.757812 13.339844 14.277344 13.960938 Z M 14.289062 13.949219 "/>
<path style=" stroke:none;fill-rule:nonzero;fill:url(#radial3);" d="M 14.289062 13.949219 C 14.203125 14.042969 13.96875 14.183594 13.96875 14.476562 C 13.96875 14.71875 14.128906 14.960938 14.417969 15.160156 C 15.757812 16.097656 18.300781 15.964844 18.308594 15.964844 C 19.308594 15.964844 20.289062 15.695312 21.148438 15.1875 C 22.914062 14.15625 23.996094 12.269531 24 10.226562 C 24.027344 8.128906 23.25 6.730469 22.941406 6.113281 C 20.945312 2.230469 16.660156 0 12 0 C 5.4375 0 0.09375 5.269531 0 11.832031 C 0.046875 8.410156 3.449219 5.644531 7.5 5.644531 C 7.828125 5.644531 9.703125 5.671875 11.4375 6.582031 C 12.65625 7.1875 13.664062 8.144531 14.335938 9.328125 C 14.90625 10.320312 15.007812 11.585938 15.007812 12.09375 C 15.007812 12.601562 14.757812 13.339844 14.277344 13.960938 Z M 14.289062 13.949219 "/>
</g>
</svg>
