<?xml version="1.0" encoding="UTF-8"?>
<svg xmlns="http://www.w3.org/2000/svg" xmlns:xlink="http://www.w3.org/1999/xlink" width="px" height="24px" viewBox="0 0 23 23" version="1.1">
<defs>
<linearGradient id="linear0" gradientUnits="userSpaceOnUse" x1="70.790001" y1="12.39" x2="6.447" y2="74.470001" gradientTransform="matrix(0.29332,0,0,0.28232,-0.172976,0.205825)">
<stop offset="0.048" style="stop-color:rgb(100%,95.686275%,30.980392%);stop-opacity:1;"/>
<stop offset="0.111" style="stop-color:rgb(100%,90.980392%,27.843137%);stop-opacity:1;"/>
<stop offset="0.225" style="stop-color:rgb(100%,78.431373%,18.823529%);stop-opacity:1;"/>
<stop offset="0.368" style="stop-color:rgb(100%,59.607843%,5.490196%);stop-opacity:1;"/>
<stop offset="0.401" style="stop-color:rgb(100%,54.509804%,8.627451%);stop-opacity:1;"/>
<stop offset="0.462" style="stop-color:rgb(100%,40.392157%,16.470588%);stop-opacity:1;"/>
<stop offset="0.534" style="stop-color:rgb(100%,21.176471%,27.843137%);stop-opacity:1;"/>
<stop offset="0.705" style="stop-color:rgb(89.019608%,8.235294%,52.941176%);stop-opacity:1;"/>
</linearGradient>
<radialGradient id="radial0" gradientUnits="userSpaceOnUse" cx="-7907" cy="-8515" fx="-7907" fy="-8515" r="80.800003" gradientTransform="matrix(0.29332,0,0,0.28232,2339.141947,2406.706845)">
<stop offset="0.129" style="stop-color:rgb(100%,74.117647%,30.980392%);stop-opacity:1;"/>
<stop offset="0.186" style="stop-color:rgb(100%,67.45098%,19.215686%);stop-opacity:1;"/>
<stop offset="0.247" style="stop-color:rgb(100%,61.568627%,9.019608%);stop-opacity:1;"/>
<stop offset="0.283" style="stop-color:rgb(100%,59.607843%,5.490196%);stop-opacity:1;"/>
<stop offset="0.403" style="stop-color:rgb(100%,33.72549%,23.137255%);stop-opacity:1;"/>
<stop offset="0.467" style="stop-color:rgb(100%,21.568627%,31.372549%);stop-opacity:1;"/>
<stop offset="0.71" style="stop-color:rgb(96.078431%,8.235294%,42.352941%);stop-opacity:1;"/>
<stop offset="0.782" style="stop-color:rgb(92.156863%,3.137255%,47.058824%);stop-opacity:1;"/>
<stop offset="0.86" style="stop-color:rgb(89.803922%,0%,50.196078%);stop-opacity:1;"/>
</radialGradient>
<radialGradient id="radial1" gradientUnits="userSpaceOnUse" cx="-7937" cy="-8482" fx="-7937" fy="-8482" r="80.800003" gradientTransform="matrix(0.29332,0,0,0.28232,2339.141947,2406.706845)">
<stop offset="0.3" style="stop-color:rgb(58.823529%,5.490196%,9.411765%);stop-opacity:1;"/>
<stop offset="0.351" style="stop-color:rgb(69.411765%,9.803922%,15.294118%);stop-opacity:0.741176;"/>
<stop offset="0.435" style="stop-color:rgb(85.882353%,16.078431%,23.921569%);stop-opacity:0.341176;"/>
<stop offset="0.497" style="stop-color:rgb(96.078431%,20%,29.411765%);stop-opacity:0.0941176;"/>
<stop offset="0.53" style="stop-color:rgb(100%,21.568627%,31.372549%);stop-opacity:0;"/>
</radialGradient>
<radialGradient id="radial2" gradientUnits="userSpaceOnUse" cx="-7927" cy="-8533" fx="-7927" fy="-8533" r="58.529999" gradientTransform="matrix(0.29332,0,0,0.28232,2339.141947,2406.706845)">
<stop offset="0.132" style="stop-color:rgb(100%,95.686275%,30.980392%);stop-opacity:1;"/>
<stop offset="0.252" style="stop-color:rgb(100%,86.27451%,24.313725%);stop-opacity:1;"/>
<stop offset="0.506" style="stop-color:rgb(100%,61.568627%,7.058824%);stop-opacity:1;"/>
<stop offset="0.526" style="stop-color:rgb(100%,59.607843%,5.490196%);stop-opacity:1;"/>
</radialGradient>
<radialGradient id="radial3" gradientUnits="userSpaceOnUse" cx="-7946" cy="-8461" fx="-7946" fy="-8461" r="38.470001" gradientTransform="matrix(0.29332,0,0,0.28232,2339.141947,2406.706845)">
<stop offset="0.353" style="stop-color:rgb(22.745098%,55.686275%,90.196078%);stop-opacity:1;"/>
<stop offset="0.472" style="stop-color:rgb(36.078431%,47.45098%,94.117647%);stop-opacity:1;"/>
<stop offset="0.669" style="stop-color:rgb(56.470588%,34.901961%,100%);stop-opacity:1;"/>
<stop offset="1" style="stop-color:rgb(75.686275%,22.352941%,90.196078%);stop-opacity:1;"/>
</radialGradient>
<radialGradient id="radial4" gradientUnits="userSpaceOnUse" cx="-7936" cy="-8492" fx="-7936" fy="-8492" r="20.4" gradientTransform="matrix(0.285107,-0.0663453,0.080663,0.321281,2959.807048,2211.905706)">
<stop offset="0.206" style="stop-color:rgb(56.470588%,34.901961%,100%);stop-opacity:0;"/>
<stop offset="0.278" style="stop-color:rgb(54.901961%,30.980392%,95.294118%);stop-opacity:0.0627451;"/>
<stop offset="0.747" style="stop-color:rgb(46.666667%,8.627451%,65.882353%);stop-opacity:0.45098;"/>
<stop offset="0.975" style="stop-color:rgb(43.137255%,0%,54.509804%);stop-opacity:0.6;"/>
</radialGradient>
<radialGradient id="radial5" gradientUnits="userSpaceOnUse" cx="-7938" cy="-8518" fx="-7938" fy="-8518" r="27.68" gradientTransform="matrix(0.29332,0,0,0.28232,2339.141947,2406.706845)">
<stop offset="0" style="stop-color:rgb(100%,88.627451%,14.901961%);stop-opacity:1;"/>
<stop offset="0.121" style="stop-color:rgb(100%,85.882353%,15.294118%);stop-opacity:1;"/>
<stop offset="0.295" style="stop-color:rgb(100%,78.431373%,16.470588%);stop-opacity:1;"/>
<stop offset="0.502" style="stop-color:rgb(100%,66.27451%,18.823529%);stop-opacity:1;"/>
<stop offset="0.732" style="stop-color:rgb(100%,49.411765%,21.568627%);stop-opacity:1;"/>
<stop offset="0.792" style="stop-color:rgb(100%,44.313725%,22.352941%);stop-opacity:1;"/>
</radialGradient>
<radialGradient id="radial6" gradientUnits="userSpaceOnUse" cx="-7916" cy="-8536" fx="-7916" fy="-8536" r="118.099998" gradientTransform="matrix(0.29332,0,0,0.28232,2339.141947,2406.706845)">
<stop offset="0.113" style="stop-color:rgb(100%,95.686275%,30.980392%);stop-opacity:1;"/>
<stop offset="0.456" style="stop-color:rgb(100%,59.607843%,5.490196%);stop-opacity:1;"/>
<stop offset="0.622" style="stop-color:rgb(100%,33.72549%,20.392157%);stop-opacity:1;"/>
<stop offset="0.716" style="stop-color:rgb(100%,21.176471%,27.843137%);stop-opacity:1;"/>
<stop offset="0.904" style="stop-color:rgb(89.019608%,8.235294%,52.941176%);stop-opacity:1;"/>
</radialGradient>
<radialGradient id="radial7" gradientUnits="userSpaceOnUse" cx="-7927" cy="-8523" fx="-7927" fy="-8523" r="86.5" gradientTransform="matrix(0.0307986,0.280909,-0.191538,0.0194801,-1373.995818,2391.461539)">
<stop offset="0" style="stop-color:rgb(100%,95.686275%,30.980392%);stop-opacity:1;"/>
<stop offset="0.06" style="stop-color:rgb(100%,90.980392%,27.843137%);stop-opacity:1;"/>
<stop offset="0.168" style="stop-color:rgb(100%,78.431373%,18.823529%);stop-opacity:1;"/>
<stop offset="0.304" style="stop-color:rgb(100%,59.607843%,5.490196%);stop-opacity:1;"/>
<stop offset="0.356" style="stop-color:rgb(100%,54.509804%,8.627451%);stop-opacity:1;"/>
<stop offset="0.455" style="stop-color:rgb(100%,40.392157%,16.470588%);stop-opacity:1;"/>
<stop offset="0.57" style="stop-color:rgb(100%,21.176471%,27.843137%);stop-opacity:1;"/>
<stop offset="0.737" style="stop-color:rgb(89.019608%,8.235294%,52.941176%);stop-opacity:1;"/>
</radialGradient>
<radialGradient id="radial8" gradientUnits="userSpaceOnUse" cx="-7938" cy="-8508" fx="-7938" fy="-8508" r="73.720001" gradientTransform="matrix(0.29332,0,0,0.28232,2339.141947,2406.706845)">
<stop offset="0.137" style="stop-color:rgb(100%,95.686275%,30.980392%);stop-opacity:1;"/>
<stop offset="0.48" style="stop-color:rgb(100%,59.607843%,5.490196%);stop-opacity:1;"/>
<stop offset="0.592" style="stop-color:rgb(100%,33.72549%,20.392157%);stop-opacity:1;"/>
<stop offset="0.655" style="stop-color:rgb(100%,21.176471%,27.843137%);stop-opacity:1;"/>
<stop offset="0.904" style="stop-color:rgb(89.019608%,8.235294%,52.941176%);stop-opacity:1;"/>
</radialGradient>
<radialGradient id="radial9" gradientUnits="userSpaceOnUse" cx="-7919" cy="-8504" fx="-7919" fy="-8504" r="80.690002" gradientTransform="matrix(0.29332,0,0,0.28232,2339.141947,2406.706845)">
<stop offset="0.094" style="stop-color:rgb(100%,95.686275%,30.980392%);stop-opacity:1;"/>
<stop offset="0.231" style="stop-color:rgb(100%,88.235294%,25.490196%);stop-opacity:1;"/>
<stop offset="0.509" style="stop-color:rgb(100%,68.627451%,11.764706%);stop-opacity:1;"/>
<stop offset="0.626" style="stop-color:rgb(100%,59.607843%,5.490196%);stop-opacity:1;"/>
</radialGradient>
<linearGradient id="linear1" gradientUnits="userSpaceOnUse" x1="70.010002" y1="12.06" x2="15.27" y2="66.809998" gradientTransform="matrix(0.29332,0,0,0.28232,-0.172976,0.205825)">
<stop offset="0.167" style="stop-color:rgb(100%,95.686275%,30.980392%);stop-opacity:0.8;"/>
<stop offset="0.266" style="stop-color:rgb(100%,95.686275%,30.980392%);stop-opacity:0.635294;"/>
<stop offset="0.489" style="stop-color:rgb(100%,95.686275%,30.980392%);stop-opacity:0.215686;"/>
<stop offset="0.6" style="stop-color:rgb(100%,95.686275%,30.980392%);stop-opacity:0;"/>
</linearGradient>
</defs>
<g id="surface1">
<path style=" stroke:none;fill-rule:nonzero;fill:url(#linear0);" d="M 22.097656 7.78125 C 21.601562 6.636719 20.601562 5.402344 19.816406 5.011719 C 20.375 6.054688 20.761719 7.175781 20.964844 8.332031 L 20.96875 8.351562 C 19.683594 5.265625 17.503906 4.023438 15.722656 1.316406 C 15.632812 1.179688 15.542969 1.039062 15.457031 0.894531 C 15.40625 0.8125 15.367188 0.738281 15.332031 0.671875 C 15.257812 0.53125 15.199219 0.386719 15.160156 0.238281 C 15.113281 0.207031 15.109375 0.210938 15.109375 0.210938 C 15.105469 0.210938 15.101562 0.214844 15.101562 0.214844 L 15.105469 0.207031 C 12.25 1.816406 11.28125 4.796875 11.191406 6.285156 C 10.050781 6.363281 8.960938 6.765625 8.0625 7.449219 C 7.96875 7.371094 7.871094 7.300781 7.769531 7.234375 C 7.511719 6.359375 7.5 5.4375 7.738281 4.558594 C 6.6875 5.046875 5.757812 5.742188 5 6.59375 L 4.996094 6.59375 C 4.542969 6.046875 4.578125 4.234375 4.601562 3.855469 C 4.46875 3.90625 4.339844 3.96875 4.222656 4.046875 C 3.824219 4.320312 3.453125 4.628906 3.113281 4.964844 C 2.722656 5.34375 2.367188 5.753906 2.050781 6.191406 C 1.316406 7.1875 0.800781 8.316406 0.523438 9.503906 L 0.507812 9.578125 C 0.488281 9.675781 0.410156 10.15625 0.398438 10.261719 C 0.398438 10.269531 0.394531 10.277344 0.394531 10.285156 C 0.292969 10.78125 0.234375 11.285156 0.210938 11.792969 L 0.210938 11.851562 C 0.21875 17.527344 4.738281 22.253906 10.613281 22.734375 C 16.488281 23.214844 21.773438 19.292969 22.78125 13.699219 C 22.800781 13.558594 22.816406 13.417969 22.832031 13.277344 C 23.066406 11.414062 22.8125 9.523438 22.09375 7.78125 Z M 8.992188 16.347656 C 9.046875 16.371094 9.097656 16.398438 9.152344 16.421875 L 9.160156 16.425781 C 9.105469 16.402344 9.046875 16.375 8.992188 16.347656 Z M 20.96875 8.355469 L 20.96875 8.34375 L 20.972656 8.355469 Z M 20.96875 8.355469 "/>
<path style=" stroke:none;fill-rule:nonzero;fill:url(#radial0);" d="M 22.097656 7.78125 C 21.601562 6.636719 20.601562 5.402344 19.816406 5.011719 C 20.375 6.054688 20.761719 7.175781 20.964844 8.332031 L 20.964844 8.34375 L 20.96875 8.355469 C 21.84375 10.769531 21.71875 13.414062 20.613281 15.738281 C 19.3125 18.429688 16.160156 21.1875 11.222656 21.054688 C 5.890625 20.90625 1.191406 17.097656 0.3125 12.109375 C 0.15625 11.320312 0.3125 10.921875 0.394531 10.285156 C 0.285156 10.78125 0.222656 11.285156 0.210938 11.792969 L 0.210938 11.851562 C 0.222656 17.527344 4.738281 22.253906 10.617188 22.734375 C 16.492188 23.214844 21.773438 19.292969 22.78125 13.699219 C 22.800781 13.558594 22.816406 13.417969 22.835938 13.277344 C 23.070312 11.414062 22.816406 9.523438 22.097656 7.78125 Z M 22.097656 7.78125 "/>
<path style=" stroke:none;fill-rule:nonzero;fill:url(#radial1);" d="M 22.097656 7.78125 C 21.601562 6.636719 20.601562 5.402344 19.816406 5.011719 C 20.375 6.054688 20.761719 7.175781 20.964844 8.332031 L 20.964844 8.34375 L 20.96875 8.355469 C 21.84375 10.769531 21.71875 13.414062 20.613281 15.738281 C 19.3125 18.429688 16.160156 21.1875 11.222656 21.054688 C 5.890625 20.90625 1.191406 17.097656 0.3125 12.109375 C 0.15625 11.320312 0.3125 10.921875 0.394531 10.285156 C 0.285156 10.78125 0.222656 11.285156 0.210938 11.792969 L 0.210938 11.851562 C 0.222656 17.527344 4.738281 22.253906 10.617188 22.734375 C 16.492188 23.214844 21.773438 19.292969 22.78125 13.699219 C 22.800781 13.558594 22.816406 13.417969 22.835938 13.277344 C 23.070312 11.414062 22.816406 9.523438 22.097656 7.78125 Z M 22.097656 7.78125 "/>
<path style=" stroke:none;fill-rule:nonzero;fill:url(#radial2);" d="M 16.570312 9.066406 C 16.59375 9.082031 16.617188 9.097656 16.640625 9.117188 C 16.355469 8.628906 16 8.183594 15.585938 7.789062 C 12.050781 4.390625 14.660156 0.417969 15.097656 0.214844 L 15.101562 0.207031 C 12.246094 1.816406 11.277344 4.792969 11.191406 6.285156 C 11.320312 6.277344 11.453125 6.265625 11.589844 6.265625 C 13.652344 6.269531 15.554688 7.339844 16.570312 9.066406 Z M 16.570312 9.066406 "/>
<path style=" stroke:none;fill-rule:nonzero;fill:url(#radial3);" d="M 11.59375 9.746094 C 11.578125 10.019531 10.578125 10.957031 10.226562 10.957031 C 6.996094 10.957031 6.46875 12.839844 6.46875 12.839844 C 6.613281 14.425781 7.761719 15.730469 9.148438 16.417969 C 9.210938 16.449219 9.277344 16.480469 9.339844 16.507812 C 9.453125 16.554688 9.5625 16.597656 9.671875 16.640625 C 10.148438 16.800781 10.648438 16.894531 11.152344 16.914062 C 16.820312 17.167969 17.917969 10.390625 13.828125 8.425781 C 14.792969 8.304688 15.769531 8.53125 16.570312 9.066406 C 15.550781 7.339844 13.652344 6.269531 11.589844 6.265625 C 11.453125 6.265625 11.320312 6.277344 11.1875 6.285156 C 10.046875 6.359375 8.957031 6.765625 8.058594 7.445312 C 8.230469 7.585938 8.429688 7.773438 8.839844 8.167969 C 9.613281 8.898438 11.589844 9.65625 11.59375 9.746094 Z M 11.59375 9.746094 "/>
<path style=" stroke:none;fill-rule:nonzero;fill:url(#radial4);" d="M 11.59375 9.746094 C 11.578125 10.019531 10.578125 10.957031 10.226562 10.957031 C 6.996094 10.957031 6.46875 12.839844 6.46875 12.839844 C 6.613281 14.425781 7.761719 15.730469 9.148438 16.417969 C 9.210938 16.449219 9.277344 16.480469 9.339844 16.507812 C 9.453125 16.554688 9.5625 16.597656 9.671875 16.640625 C 10.148438 16.800781 10.648438 16.894531 11.152344 16.914062 C 16.820312 17.167969 17.917969 10.390625 13.828125 8.425781 C 14.792969 8.304688 15.769531 8.53125 16.570312 9.066406 C 15.550781 7.339844 13.652344 6.269531 11.589844 6.265625 C 11.453125 6.265625 11.320312 6.277344 11.1875 6.285156 C 10.046875 6.359375 8.957031 6.765625 8.058594 7.445312 C 8.230469 7.585938 8.429688 7.773438 8.839844 8.167969 C 9.613281 8.898438 11.589844 9.65625 11.59375 9.746094 Z M 11.59375 9.746094 "/>
<path style=" stroke:none;fill-rule:nonzero;fill:url(#radial5);" d="M 7.53125 7.085938 C 7.621094 7.140625 7.699219 7.191406 7.765625 7.234375 C 7.503906 6.363281 7.496094 5.4375 7.730469 4.558594 C 6.683594 5.046875 5.75 5.742188 4.996094 6.59375 C 5.050781 6.59375 6.699219 6.566406 7.53125 7.085938 Z M 7.53125 7.085938 "/>
<path style=" stroke:none;fill-rule:nonzero;fill:url(#radial6);" d="M 0.3125 12.109375 C 1.191406 17.097656 5.886719 20.910156 11.222656 21.054688 C 16.15625 21.1875 19.308594 18.429688 20.613281 15.742188 C 21.714844 13.414062 21.84375 10.769531 20.964844 8.355469 L 20.964844 8.34375 C 20.964844 8.335938 20.964844 8.332031 20.964844 8.332031 L 20.96875 8.351562 C 21.371094 10.886719 20.03125 13.339844 17.9375 15.003906 L 17.933594 15.019531 C 13.851562 18.214844 9.949219 16.945312 9.160156 16.429688 C 9.105469 16.402344 9.046875 16.378906 8.992188 16.351562 C 6.613281 15.253906 5.632812 13.171875 5.84375 11.382812 C 4.691406 11.398438 3.632812 10.757812 3.148438 9.75 C 4.421875 9.003906 6.003906 8.941406 7.332031 9.589844 C 8.675781 10.175781 10.207031 10.234375 11.597656 9.75 C 11.59375 9.660156 9.613281 8.902344 8.84375 8.171875 C 8.429688 7.78125 8.234375 7.59375 8.0625 7.453125 C 7.96875 7.375 7.871094 7.304688 7.769531 7.238281 C 7.703125 7.195312 7.625 7.144531 7.535156 7.089844 C 6.707031 6.570312 5.054688 6.597656 5 6.597656 L 4.996094 6.597656 C 4.546875 6.050781 4.578125 4.238281 4.601562 3.859375 C 4.46875 3.910156 4.34375 3.976562 4.222656 4.050781 C 3.824219 4.324219 3.453125 4.632812 3.113281 4.96875 C 2.722656 5.347656 2.367188 5.757812 2.046875 6.191406 L 2.046875 6.195312 L 2.046875 6.191406 C 1.316406 7.191406 0.796875 8.316406 0.519531 9.507812 C 0.515625 9.527344 0.109375 11.230469 0.308594 12.109375 Z M 0.3125 12.109375 "/>
<path style=" stroke:none;fill-rule:nonzero;fill:url(#radial7);" d="M 15.585938 7.789062 C 16 8.183594 16.355469 8.628906 16.640625 9.117188 C 16.703125 9.164062 16.761719 9.207031 16.808594 9.25 C 19.386719 11.539062 18.039062 14.769531 17.9375 15 C 20.03125 13.339844 21.367188 10.882812 20.96875 8.347656 C 19.679688 5.261719 17.5 4.015625 15.722656 1.308594 C 15.632812 1.171875 15.542969 1.035156 15.453125 0.890625 C 15.40625 0.808594 15.363281 0.734375 15.328125 0.664062 C 15.253906 0.527344 15.199219 0.382812 15.160156 0.230469 C 15.109375 0.203125 15.109375 0.207031 15.105469 0.207031 C 15.105469 0.207031 15.101562 0.210938 15.097656 0.210938 C 14.660156 0.410156 12.050781 4.386719 15.585938 7.785156 Z M 15.585938 7.789062 "/>
<path style=" stroke:none;fill-rule:nonzero;fill:url(#radial8);" d="M 16.808594 9.253906 C 16.761719 9.207031 16.703125 9.164062 16.640625 9.117188 C 16.617188 9.101562 16.59375 9.085938 16.570312 9.066406 C 15.769531 8.535156 14.792969 8.308594 13.828125 8.425781 C 17.917969 10.394531 16.820312 17.171875 11.152344 16.917969 C 10.648438 16.898438 10.148438 16.804688 9.675781 16.640625 C 9.5625 16.601562 9.453125 16.558594 9.339844 16.511719 C 9.277344 16.484375 9.210938 16.453125 9.148438 16.421875 L 9.15625 16.425781 C 9.945312 16.945312 13.847656 18.214844 17.929688 15.015625 L 17.9375 15 C 18.039062 14.773438 19.386719 11.539062 16.808594 9.253906 Z M 16.808594 9.253906 "/>
<path style=" stroke:none;fill-rule:nonzero;fill:url(#radial9);" d="M 6.472656 12.839844 C 6.472656 12.839844 6.996094 10.957031 10.226562 10.957031 C 10.578125 10.957031 11.578125 10.015625 11.59375 9.746094 C 10.207031 10.230469 8.671875 10.171875 7.328125 9.582031 C 6 8.933594 4.417969 8.996094 3.148438 9.746094 C 3.632812 10.753906 4.6875 11.390625 5.839844 11.375 C 5.628906 13.164062 6.613281 15.25 8.992188 16.34375 C 9.042969 16.367188 9.09375 16.394531 9.148438 16.417969 C 7.761719 15.726562 6.613281 14.421875 6.472656 12.839844 Z M 6.472656 12.839844 "/>
<path style=" stroke:none;fill-rule:nonzero;fill:url(#linear1);" d="M 22.097656 7.78125 C 21.601562 6.636719 20.601562 5.402344 19.816406 5.011719 C 20.375 6.054688 20.761719 7.175781 20.964844 8.332031 L 20.96875 8.351562 C 19.683594 5.265625 17.503906 4.023438 15.722656 1.316406 C 15.632812 1.179688 15.542969 1.039062 15.457031 0.894531 C 15.40625 0.8125 15.367188 0.738281 15.332031 0.671875 C 15.257812 0.53125 15.199219 0.386719 15.160156 0.238281 C 15.113281 0.207031 15.109375 0.210938 15.109375 0.210938 C 15.105469 0.210938 15.101562 0.214844 15.101562 0.214844 L 15.105469 0.207031 C 12.25 1.816406 11.28125 4.796875 11.191406 6.285156 C 11.324219 6.277344 11.457031 6.265625 11.589844 6.265625 C 13.652344 6.269531 15.554688 7.339844 16.570312 9.066406 C 15.773438 8.535156 14.796875 8.304688 13.832031 8.425781 C 17.917969 10.394531 16.824219 17.171875 11.15625 16.917969 C 10.652344 16.894531 10.152344 16.804688 9.675781 16.640625 C 9.566406 16.601562 9.453125 16.558594 9.34375 16.511719 C 9.277344 16.480469 9.214844 16.453125 9.152344 16.421875 L 9.160156 16.425781 C 9.105469 16.402344 9.050781 16.375 8.992188 16.347656 C 9.046875 16.371094 9.097656 16.398438 9.152344 16.421875 C 7.761719 15.730469 6.617188 14.425781 6.472656 12.84375 C 6.472656 12.84375 7 10.960938 10.230469 10.960938 C 10.582031 10.960938 11.582031 10.019531 11.597656 9.75 C 11.59375 9.660156 9.617188 8.902344 8.84375 8.171875 C 8.433594 7.78125 8.234375 7.589844 8.0625 7.449219 C 7.96875 7.375 7.871094 7.300781 7.769531 7.234375 C 7.511719 6.363281 7.5 5.441406 7.738281 4.5625 C 6.6875 5.050781 5.757812 5.742188 5 6.597656 L 4.996094 6.597656 C 4.546875 6.046875 4.578125 4.234375 4.601562 3.855469 C 4.46875 3.90625 4.34375 3.972656 4.222656 4.050781 C 3.824219 4.324219 3.453125 4.628906 3.113281 4.964844 C 2.722656 5.347656 2.367188 5.757812 2.050781 6.195312 L 2.050781 6.191406 C 1.320312 7.191406 0.800781 8.316406 0.523438 9.507812 L 0.507812 9.578125 C 0.488281 9.675781 0.390625 10.164062 0.378906 10.269531 C 0.289062 10.773438 0.234375 11.285156 0.210938 11.796875 L 0.210938 11.851562 C 0.21875 17.527344 4.738281 22.253906 10.613281 22.734375 C 16.492188 23.21875 21.773438 19.296875 22.78125 13.703125 C 22.800781 13.5625 22.816406 13.421875 22.832031 13.277344 C 23.066406 11.417969 22.8125 9.527344 22.09375 7.78125 Z M 20.96875 8.34375 L 20.96875 8.355469 Z M 20.96875 8.34375 "/>
</g>
</svg>
